<?xml version="1.0" standalone="no"?><!DOCTYPE svg PUBLIC "-//W3C//DTD SVG 1.1//EN" "http://www.w3.org/Graphics/SVG/1.1/DTD/svg11.dtd"><svg t="1566285296218" class="icon" viewBox="0 0 1024 1024" version="1.1" xmlns="http://www.w3.org/2000/svg" p-id="3164" width="200" height="200" xmlns:xlink="http://www.w3.org/1999/xlink"><defs><style type="text/css"></style></defs><path d="M0 0h1024v1024H0z" fill="#FFFFFF" p-id="3165"></path><path d="M283.428 112h457.144c63.12 0 114.284 51.168 114.284 114.284v457.144H169.144V226.284C169.144 163.164 220.312 112 283.428 112z" fill="#d81e06" p-id="3166" data-spm-anchor-id="a313x.7781069.0.i21" class=""></path><path d="M283.428 226.284m48 0l361.144 0q48 0 48 48l0 0q0 48-48 48l-361.144 0q-48 0-48-48l0 0q0-48 48-48Z" fill="#FDDFC8" p-id="3167"></path><path d="M283.428 438.856m48 0l189.716 0q48 0 48 48l0 0q0 48-48 48l-189.716 0q-48 0-48-48l0 0q0-48 48-48Z" fill="#FDDFC8" p-id="3168"></path><path d="M154.732 422.096l343.696 196.1a28.572 28.572 0 0 0 28.352-0.02l342.456-195.988a28.572 28.572 0 0 1 42.764 24.8v350.728c0 63.12-51.168 114.284-114.284 114.284H226.28C163.164 912 112 860.832 112 797.716V446.912a28.572 28.572 0 0 1 42.732-24.816z" fill="#d81e06" p-id="3169" data-spm-anchor-id="a313x.7781069.0.i20" class="selected"></path></svg>